<svg xmlns="http://www.w3.org/2000/svg" viewBox="0 0 24 24" width="24" height="24">
  <title>gear</title>
  <path transform="matrix(0.7718980853309212, 0, 0, 0.7718980853309212, 0.38082315694255975, 18.530996525145106)" d="M15.05 2.74C15.34 2.74 15.62 2.73 15.90 2.71L16.55 3.91C16.70 4.22 16.97 4.34 17.30 4.30C17.64 4.24 17.84 4.02 17.87 3.69L18.07 2.33C18.63 2.18 19.16 1.98 19.68 1.75L20.68 2.66C20.93 2.89 21.23 2.91 21.53 2.75C21.82 2.59 21.94 2.31 21.87 1.98L21.57 0.64C22.04 0.32 22.48-0.06 22.89-0.45L24.14 0.07C24.46 0.19 24.75 0.12 24.97-0.14C25.20-0.40 25.22-0.69 25.03-0.98L24.30-2.13C24.62-2.61 24.90-3.11 25.16-3.61L26.51-3.56C26.85-3.55 27.11-3.71 27.22-4.04C27.34-4.35 27.26-4.64 26.99-4.84L25.90-5.67C26.05-6.22 26.14-6.79 26.20-7.37L27.49-7.78C27.82-7.89 28.01-8.12 28.01-8.46C28.01-8.80 27.82-9.05 27.49-9.14L26.20-9.55C26.14-10.14 26.05-10.70 25.90-11.25L26.98-12.08C27.26-12.28 27.33-12.57 27.22-12.89C27.11-13.22 26.85-13.37 26.51-13.36L25.16-13.32C24.90-13.83 24.62-14.33 24.30-14.80L25.02-15.94C25.21-16.23 25.18-16.54 24.98-16.79C24.75-17.05 24.46-17.11 24.15-16.99L22.89-16.48C22.48-16.89 22.03-17.25 21.57-17.58L21.87-18.90C21.94-19.24 21.82-19.51 21.54-19.68C21.23-19.85 20.93-19.80 20.68-19.58L19.66-18.68C19.16-18.91 18.62-19.10 18.06-19.27L17.87-20.61C17.84-20.94 17.63-21.15 17.31-21.22C16.97-21.28 16.70-21.14 16.55-20.85L15.90-19.64C15.62-19.65 15.34-19.66 15.05-19.66C14.77-19.66 14.48-19.65 14.19-19.64L13.56-20.84C13.39-21.14 13.13-21.27 12.81-21.22C12.47-21.16 12.27-20.94 12.22-20.61L12.02-19.27C11.47-19.10 10.93-18.90 10.42-18.67L9.42-19.58C9.18-19.82 8.87-19.84 8.57-19.68C8.27-19.51 8.17-19.23 8.24-18.90L8.52-17.57C8.05-17.24 7.62-16.88 7.21-16.48L5.95-16.99C5.65-17.12 5.34-17.04 5.12-16.78C4.90-16.54 4.89-16.23 5.07-15.94L5.80-14.79C5.47-14.32 5.19-13.82 4.95-13.31L3.60-13.36C3.25-13.38 3-13.21 2.88-12.89C2.75-12.57 2.85-12.28 3.12-12.08L4.20-11.25C4.05-10.70 3.95-10.14 3.90-9.55L2.60-9.14C2.27-9.05 2.10-8.80 2.10-8.46C2.10-8.12 2.27-7.89 2.60-7.78L3.90-7.37C3.95-6.79 4.05-6.22 4.20-5.67L3.12-4.84C2.85-4.64 2.78-4.35 2.87-4.03C3-3.70 3.25-3.55 3.59-3.56L4.95-3.61C5.19-3.09 5.47-2.60 5.80-2.12L5.07-0.98C4.89-0.69 4.92-0.39 5.12-0.14C5.36 0.13 5.65 0.19 5.95 0.07L7.21-0.46C7.62-0.05 8.06 0.32 8.52 0.66L8.24 1.98C8.17 2.31 8.29 2.59 8.57 2.75C8.87 2.93 9.18 2.89 9.41 2.66L10.43 1.75C10.95 1.99 11.48 2.18 12.04 2.33L12.22 3.68C12.27 4.02 12.48 4.23 12.80 4.30C13.14 4.36 13.39 4.22 13.56 3.91L14.19 2.71C14.48 2.73 14.77 2.74 15.05 2.74ZM15.06-11.53C14.77-11.53 14.48-11.50 14.23-11.43L11.07-16.83C12.28-17.40 13.63-17.72 15.05-17.72C19.89-17.72 23.86-14.02 24.27-9.28L18.01-9.28C17.66-10.58 16.46-11.53 15.06-11.53ZM5.79-8.46C5.79-11.57 7.31-14.31 9.64-15.98L12.82-10.57C12.30-10.02 11.99-9.28 11.99-8.46C11.99-7.64 12.32-6.88 12.84-6.33L9.57-0.98C7.28-2.67 5.79-5.39 5.79-8.46ZM15.06-7.15C14.33-7.15 13.75-7.73 13.75-8.46C13.75-9.19 14.33-9.77 15.06-9.77C15.79-9.77 16.37-9.19 16.37-8.46C16.37-7.73 15.79-7.15 15.06-7.15ZM15.05 0.80C13.59 0.80 12.22 0.46 10.99-0.14L14.25-5.50C14.51-5.43 14.78-5.39 15.06-5.39C16.48-5.39 17.67-6.35 18.02-7.66L24.28-7.66C23.87-2.92 19.90 0.80 15.05 0.80Z" fill="currentColor"/>
</svg>