<svg xmlns="http://www.w3.org/2000/svg" viewBox="0 0 24 24" width="24" height="24">
  <title>square.and.arrow.up</title>
  <path transform="matrix(0.7598693974473137, 0, 0, 0.7598693974473137, 1.8263579697239538, 19.266251113089936)" d="M13.38-5.58C13.89-5.58 14.32-5.99 14.32-6.48L14.32-18.40L14.24-20.17L14.91-19.46L16.71-17.53C16.88-17.34 17.12-17.25 17.34-17.25C17.84-17.25 18.20-17.59 18.20-18.07C18.20-18.33 18.11-18.52 17.93-18.69L14.06-22.42C13.83-22.65 13.63-22.72 13.38-22.72C13.15-22.72 12.95-22.65 12.70-22.42L8.85-18.69C8.67-18.52 8.57-18.33 8.57-18.07C8.57-17.59 8.92-17.25 9.41-17.25C9.63-17.25 9.89-17.34 10.05-17.53L11.87-19.46L12.54-20.17L12.46-18.40L12.46-6.48C12.46-5.99 12.88-5.58 13.38-5.58ZM7.89 3.60L18.88 3.60C22.03 3.60 23.79 1.85 23.79-1.30L23.79-10.32C23.79-13.46 22.03-15.22 18.88-15.22L16.51-15.22L16.51-13.34L18.88-13.34C20.81-13.34 21.90-12.25 21.90-10.32L21.90-1.30C21.90 0.63 20.81 1.71 18.88 1.71L7.89 1.71C5.96 1.71 4.88 0.63 4.88-1.30L4.88-10.32C4.88-12.25 5.96-13.34 7.89-13.34L10.25-13.34L10.25-15.22L7.89-15.22C4.73-15.22 2.99-13.46 2.99-10.32L2.99-1.30C2.99 1.85 4.73 3.60 7.89 3.60Z" fill="currentColor"/>
</svg>