<svg xmlns="http://www.w3.org/2000/svg" viewBox="0 0 24 24" width="24" height="24">
  <title>figure.baseball</title>
  <path transform="matrix(0.7021459795608912, 0, 0, 0.7021459795608912, 2.7653187547675326, 18.01221964326751)" d="M5.75 5.66C6.41 5.78 7.02 5.34 7.15 4.66L8.26-1.32L12.93-3.86C13.05-3.94 13.17-3.90 13.23-3.77L15.59 1.91C15.73 2.21 15.94 2.43 16.21 2.57L21.50 5.51C22.17 5.89 22.88 5.58 23.16 5.05C23.50 4.48 23.27 3.71 22.69 3.39L17.75 0.66L14.41-12.71C14.21-13.51 13.52-14.09 12.67-14.09L5.51-14.09L8.86-21.21C9.32-22.17 8.63-22.80 7.92-22.80C7.52-22.80 7.14-22.61 6.94-22.11L3.07-12.04C2.88-11.55 3.04-11.11 3.33-10.82L6.32-7.82C6.77-7.37 7.56-7.37 8.02-7.82L9.34-9.15C9.52-9.33 9.79-9.33 9.86-9.07L10.57-6.20L6.43-3.09C6.14-2.87 6.01-2.52 5.94-2.19L4.78 4.24C4.66 4.88 5.10 5.53 5.75 5.66ZM12.22-15.32C13.63-15.32 14.77-16.45 14.77-17.87C14.77-19.28 13.63-20.41 12.22-20.41C10.79-20.41 9.66-19.28 9.66-17.87C9.66-16.45 10.79-15.32 12.22-15.32ZM8.40-11.67L7.16-10.43L5.92-11.67Z" fill="currentColor"/>
</svg>