<svg xmlns="http://www.w3.org/2000/svg" viewBox="0 0 24 24" width="24" height="24">
  <title>square.grid.3x2</title>
  <path transform="matrix(0.5998828353837141, 0, 0, 0.5998828353837141, 0.2073813708260106, 17.065026362038665)" d="M5.23-9.41L10.57-9.41C12.06-9.41 12.81-10.16 12.81-11.71L12.81-16.95C12.81-18.49 12.06-19.23 10.57-19.23L5.23-19.23C3.74-19.23 2.99-18.49 2.99-16.95L2.99-11.71C2.99-10.16 3.74-9.41 5.23-9.41ZM16.99-9.41L22.32-9.41C23.81-9.41 24.56-10.16 24.56-11.71L24.56-16.95C24.56-18.49 23.81-19.23 22.32-19.23L16.99-19.23C15.49-19.23 14.74-18.49 14.74-16.95L14.74-11.71C14.74-10.16 15.49-9.41 16.99-9.41ZM28.75-9.41L34.09-9.41C35.58-9.41 36.33-10.16 36.33-11.71L36.33-16.95C36.33-18.49 35.58-19.23 34.09-19.23L28.75-19.23C27.26-19.23 26.51-18.49 26.51-16.95L26.51-11.71C26.51-10.16 27.26-9.41 28.75-9.41ZM5.25-11.06C4.84-11.06 4.64-11.27 4.64-11.71L4.64-16.95C4.64-17.37 4.84-17.58 5.25-17.58L10.54-17.58C10.95-17.58 11.16-17.37 11.16-16.95L11.16-11.71C11.16-11.27 10.95-11.06 10.54-11.06ZM17.02-11.06C16.59-11.06 16.39-11.27 16.39-11.71L16.39-16.95C16.39-17.37 16.59-17.58 17.02-17.58L22.30-17.58C22.71-17.58 22.91-17.37 22.91-16.95L22.91-11.71C22.91-11.27 22.71-11.06 22.30-11.06ZM28.77-11.06C28.36-11.06 28.16-11.27 28.16-11.71L28.16-16.95C28.16-17.37 28.36-17.58 28.77-17.58L34.05-17.58C34.48-17.58 34.68-17.37 34.68-16.95L34.68-11.71C34.68-11.27 34.48-11.06 34.05-11.06ZM5.23 2.34L10.57 2.34C12.06 2.34 12.81 1.61 12.81 0.06L12.81-5.19C12.81-6.73 12.06-7.48 10.57-7.48L5.23-7.48C3.74-7.48 2.99-6.73 2.99-5.19L2.99 0.06C2.99 1.61 3.74 2.34 5.23 2.34ZM16.99 2.34L22.32 2.34C23.81 2.34 24.56 1.61 24.56 0.06L24.56-5.19C24.56-6.73 23.81-7.48 22.32-7.48L16.99-7.48C15.49-7.48 14.74-6.73 14.74-5.19L14.74 0.06C14.74 1.61 15.49 2.34 16.99 2.34ZM28.75 2.34L34.09 2.34C35.58 2.34 36.33 1.61 36.33 0.06L36.33-5.19C36.33-6.73 35.58-7.48 34.09-7.48L28.75-7.48C27.26-7.48 26.51-6.73 26.51-5.19L26.51 0.06C26.51 1.61 27.26 2.34 28.75 2.34ZM5.25 0.69C4.84 0.69 4.64 0.48 4.64 0.06L4.64-5.18C4.64-5.61 4.84-5.82 5.25-5.82L10.54-5.82C10.95-5.82 11.16-5.61 11.16-5.18L11.16 0.06C11.16 0.48 10.95 0.69 10.54 0.69ZM17.02 0.69C16.59 0.69 16.39 0.48 16.39 0.06L16.39-5.18C16.39-5.61 16.59-5.82 17.02-5.82L22.30-5.82C22.71-5.82 22.91-5.61 22.91-5.18L22.91 0.06C22.91 0.48 22.71 0.69 22.30 0.69ZM28.77 0.69C28.36 0.69 28.16 0.48 28.16 0.06L28.16-5.18C28.16-5.61 28.36-5.82 28.77-5.82L34.05-5.82C34.48-5.82 34.68-5.61 34.68-5.18L34.68 0.06C34.68 0.48 34.48 0.69 34.05 0.69Z" fill="currentColor"/>
</svg>