<?xml version="1.0" encoding="UTF-8"?>
<svg height="600" width="800" xmlns="http://www.w3.org/2000/svg" xmlns:xlink="http://www.w3.org/1999/xlink">
    <g id="Notes" font-family="'LucidaGrande', 'Lucida Grande', sans-serif" font-size="13">
        <rect fill="white" height="600.0" width="800.0" x="0.0" y="0.0" />
        <g font-size="13">
            <text x="18.0" y="176.0">Small</text>
            <text x="18.0" y="376.0">Medium</text>
            <text x="18.0" y="576.0">Large</text>
        </g>
        <g font-size="9">
            <text x="250.0" y="30.0">Ultralight</text>
            <text x="450.0" y="30.0">Regular</text>
            <text x="650.0" y="30.0">Black</text>
            <text id="template-version" fill="#505050" text-anchor="end" x="785.0" y="575.0">Template v.3.0</text>
            <a href="https://wangchujiang.com/#/app">
                <text fill="#505050" text-anchor="end" x="785.0" y="590.0">https://wangchujiang.com/#/app</text>
            </a>
        </g>
    </g>
    <g id="Guides" stroke="rgb(39, 170, 225)" stroke-width="0.5">
        <path id="Capline-S" d="M18,76 l800,0" />
        <path id="H-reference" d="M85,145.755 L87.685,145.755 L113.369,79.287 L114.052,79.287 L114.052,76 L112.148,76 L85,145.755 Z M95.693,121.536 L130.996,121.536 L130.263,119.313 L96.474,119.313 L95.693,121.536 Z M139.15,145.755 L141.787,145.755 L114.638,76 L113.466,76 L113.466,79.287 L139.15,145.755 Z" stroke="none" />
        <path id="Baseline-S" d="M18,146 l800,0" />
        <path id="left-margin-Ultralight-S" d="M219.286,56 l0,110" />
        <path id="right-margin-Ultralight-S" d="M310.714,56 l0,110" />
        <path id="left-margin-Regular-S" d="M419.286,56 l0,110" />
        <path id="right-margin-Regular-S" d="M510.714,56 l0,110" />
        <path id="left-margin-Black-S" d="M619.286,56 l0,110" />
        <path id="right-margin-Black-S" d="M710.714,56 l0,110" />
        <path id="Capline-M" d="M18,276 l800,0" />
        <path id="Baseline-M" d="M18,346 l800,0" />
        <path id="Capline-L" d="M18,476 l800,0" />
        <path id="Baseline-L" d="M18,546 l800,0" />
    </g>
    <g id="Symbols">
        <g id="Ultralight-S">
            <path d="M298.318,132.435 C297.19,135.861 296.054,138.224 294.911,139.523 C293,141.682 290.125,142.762 286.288,142.762 C284.001,142.762 282.564,142.594 281.977,142.257 C281.389,141.921 281.096,141.111 281.096,139.828 L281.096,128.703 C283.163,128.703 284.906,129.212 286.323,130.228 C287.741,131.246 288.568,133.202 288.802,136.096 L291.175,136.049 L291.175,119.362 L288.732,119.362 C288.418,121.255 287.948,122.679 287.322,123.633 C286.195,125.339 284.424,126.192 282.012,126.192 C281.887,126.192 281.765,126.188 281.648,126.18 C281.531,126.172 281.347,126.161 281.096,126.145 L281.096,116.522 C281.096,115.114 281.417,114.191 282.059,113.753 C282.701,113.315 283.986,113.095 285.913,113.095 C288.841,113.095 291.301,113.763 293.29,115.098 C295.28,116.432 296.768,119.121 297.754,123.164 L300.151,123.117 L299.775,110.608 L282.267,110.608 C286.823,109.857 290.578,107.813 293.528,104.469 C296.472,101.133 297.941,97.276 297.933,92.898 C297.922,87.833 295.728,83.556 291.35,80.065 C287.661,77.125 283.393,75.829 278.545,76.178 C273.51,76.555 269.328,78.63 265.998,82.404 C262.819,86.006 261.308,90.073 261.463,94.606 C261.496,95.697 261.629,96.747 261.86,97.756 L259.643,97.756 C259.549,98.491 259.223,99.61 258.668,101.112 C258.112,102.614 257.379,103.889 256.471,104.937 C255.39,106.173 254.133,107.023 252.7,107.484 C251.267,107.945 249.422,108.176 247.167,108.176 C245.349,108.176 244.198,108.004 243.713,107.659 C243.227,107.315 242.969,106.595 242.938,105.498 L242.891,104.042 L242.891,80.553 C242.891,79.966 242.985,79.502 243.173,79.161 C243.36,78.821 243.822,78.643 244.559,78.628 L248.294,78.558 L248.294,76 L229.286,76 L229.286,78.558 L231.8,78.629 C233.022,78.66 233.746,78.852 233.973,79.204 C234.2,79.556 234.314,80.569 234.314,82.243 L234.314,106.158 C234.314,106.878 234.212,107.348 234.008,107.566 C233.805,107.786 233.515,107.926 233.139,107.989 C232.669,108.068 232.273,108.114 231.952,108.129 C231.631,108.145 230.742,108.153 229.286,108.153 L229.286,110.711 L229.288,110.711 L229.288,113.166 C230.964,113.307 232.052,113.53 232.554,113.835 C233.055,114.14 233.579,114.982 234.128,116.358 L246.087,146 L250.034,146 L261.007,119.292 C261.947,116.992 263.09,115.365 264.437,114.41 C265.204,113.879 266.247,113.487 267.562,113.237 L267.562,113.167 C269.883,113.214 271.302,113.324 271.815,113.495 C272.332,113.667 272.59,114.175 272.59,115.02 L272.59,140.414 C272.59,141.567 272.304,142.255 271.732,142.476 C271.16,142.698 269.755,142.792 267.515,142.761 L267.515,145.319 L300.151,145.319 L300.714,132.599 L298.318,132.435 Z M267.41,97.496 C268.514,94.418 270.336,91.441 272.875,88.564 C275.565,85.515 277.936,83.367 279.988,82.122 C283.763,79.82 287.09,79.816 289.97,82.112 C292.361,84.018 293.054,86.442 292.049,89.385 C291.043,92.327 289.089,95.443 286.185,98.734 C282.834,102.531 279.805,105.011 277.096,106.174 C274.388,107.337 271.933,107.041 269.733,105.286 C267.079,103.171 266.304,100.574 267.41,97.496 Z M258.129,117.285 C258.027,117.747 257.662,118.831 257.036,120.536 L250.821,135.666 L242.868,115.396 C242.79,115.193 242.731,115.02 242.692,114.88 C242.653,114.739 242.633,114.598 242.633,114.457 C242.633,114.066 242.723,113.808 242.904,113.683 C243.084,113.558 243.315,113.464 243.597,113.401 C243.737,113.386 244.211,113.346 245.018,113.284 C245.825,113.222 246.369,113.182 246.651,113.167 L246.651,110.711 L253.488,110.711 L253.488,113.166 C254.819,113.26 255.814,113.448 256.472,113.73 C257.678,114.246 258.281,115.114 258.281,116.335 C258.281,116.507 258.23,116.824 258.129,117.285 Z M267.562,110.608 L267.515,110.608 L261.55,110.608 L262.111,98.708 C263.029,101.773 264.908,104.439 267.751,106.705 C270.359,108.784 273.136,110.084 276.083,110.608 L267.562,110.608 Z" />
        </g>
        <g id="Regular-S">
            <path d="M498.318,132.435 C497.19,135.861 496.054,138.224 494.911,139.523 C493,141.682 490.125,142.762 486.288,142.762 C484.001,142.762 482.564,142.594 481.977,142.257 C481.389,141.921 481.096,141.111 481.096,139.828 L481.096,128.703 C483.163,128.703 484.906,129.212 486.323,130.228 C487.741,131.246 488.568,133.202 488.802,136.096 L491.175,136.049 L491.175,119.362 L488.732,119.362 C488.418,121.255 487.948,122.679 487.322,123.633 C486.195,125.339 484.424,126.192 482.012,126.192 C481.887,126.192 481.765,126.188 481.648,126.18 C481.531,126.172 481.347,126.161 481.096,126.145 L481.096,116.522 C481.096,115.114 481.417,114.191 482.059,113.753 C482.701,113.315 483.986,113.095 485.913,113.095 C488.841,113.095 491.301,113.763 493.29,115.098 C495.28,116.432 496.768,119.121 497.754,123.164 L500.151,123.117 L499.775,110.608 L482.267,110.608 C486.823,109.857 490.578,107.813 493.528,104.469 C496.472,101.133 497.941,97.276 497.933,92.898 C497.922,87.833 495.728,83.556 491.35,80.065 C487.661,77.125 483.393,75.829 478.545,76.178 C473.51,76.555 469.328,78.63 465.998,82.404 C462.819,86.006 461.308,90.073 461.463,94.606 C461.496,95.697 461.629,96.747 461.86,97.756 L459.643,97.756 C459.549,98.491 459.223,99.61 458.668,101.112 C458.112,102.614 457.379,103.889 456.471,104.937 C455.39,106.173 454.133,107.023 452.7,107.484 C451.267,107.945 449.422,108.176 447.167,108.176 C445.349,108.176 444.198,108.004 443.713,107.659 C443.227,107.315 442.969,106.595 442.938,105.498 L442.891,104.042 L442.891,80.553 C442.891,79.966 442.985,79.502 443.173,79.161 C443.36,78.821 443.822,78.643 444.559,78.628 L448.294,78.558 L448.294,76 L429.286,76 L429.286,78.558 L431.8,78.629 C433.022,78.66 433.746,78.852 433.973,79.204 C434.2,79.556 434.314,80.569 434.314,82.243 L434.314,106.158 C434.314,106.878 434.212,107.348 434.008,107.566 C433.805,107.786 433.515,107.926 433.139,107.989 C432.669,108.068 432.273,108.114 431.952,108.129 C431.631,108.145 430.742,108.153 429.286,108.153 L429.286,110.711 L429.288,110.711 L429.288,113.166 C430.964,113.307 432.052,113.53 432.554,113.835 C433.055,114.14 433.579,114.982 434.128,116.358 L446.087,146 L450.034,146 L461.007,119.292 C461.947,116.992 463.09,115.365 464.437,114.41 C465.204,113.879 466.247,113.487 467.562,113.237 L467.562,113.167 C469.883,113.214 471.302,113.324 471.815,113.495 C472.332,113.667 472.59,114.175 472.59,115.02 L472.59,140.414 C472.59,141.567 472.304,142.255 471.732,142.476 C471.16,142.698 469.755,142.792 467.515,142.761 L467.515,145.319 L500.151,145.319 L500.714,132.599 L498.318,132.435 Z M467.41,97.496 C468.514,94.418 470.336,91.441 472.875,88.564 C475.565,85.515 477.936,83.367 479.988,82.122 C483.763,79.82 487.09,79.816 489.97,82.112 C492.361,84.018 493.054,86.442 492.049,89.385 C491.043,92.327 489.089,95.443 486.185,98.734 C482.834,102.531 479.805,105.011 477.096,106.174 C474.388,107.337 471.933,107.041 469.733,105.286 C467.079,103.171 466.304,100.574 467.41,97.496 Z M458.129,117.285 C458.027,117.747 457.662,118.831 457.036,120.536 L450.82,135.666 L442.868,115.396 C442.79,115.193 442.731,115.02 442.692,114.88 C442.653,114.739 442.633,114.598 442.633,114.457 C442.633,114.066 442.723,113.808 442.904,113.683 C443.084,113.558 443.315,113.464 443.596,113.401 C443.737,113.386 444.211,113.346 445.018,113.284 C445.825,113.222 446.369,113.182 446.651,113.167 L446.651,110.711 L453.488,110.711 L453.488,113.166 C454.819,113.26 455.814,113.448 456.472,113.73 C457.678,114.246 458.281,115.114 458.281,116.335 C458.281,116.507 458.23,116.824 458.129,117.285 Z M467.562,110.608 L467.515,110.608 L461.55,110.608 L462.111,98.708 C463.029,101.773 464.908,104.439 467.751,106.705 C470.359,108.784 473.136,110.084 476.083,110.608 L467.562,110.608 Z" />
        </g>
        <g id="Black-S">
            <path d="M698.318,132.435 C697.19,135.861 696.054,138.224 694.911,139.523 C693,141.682 690.125,142.762 686.288,142.762 C684.001,142.762 682.564,142.594 681.977,142.257 C681.389,141.921 681.096,141.111 681.096,139.828 L681.096,128.703 C683.163,128.703 684.906,129.212 686.323,130.228 C687.741,131.246 688.568,133.202 688.802,136.096 L691.175,136.049 L691.175,119.362 L688.732,119.362 C688.418,121.255 687.948,122.679 687.322,123.633 C686.195,125.339 684.424,126.192 682.012,126.192 C681.887,126.192 681.765,126.188 681.648,126.18 C681.531,126.172 681.346,126.161 681.096,126.145 L681.096,116.522 C681.096,115.114 681.417,114.191 682.059,113.753 C682.701,113.315 683.986,113.095 685.913,113.095 C688.841,113.095 691.301,113.763 693.29,115.098 C695.279,116.432 696.768,119.121 697.754,123.164 L700.151,123.117 L699.775,110.608 L682.267,110.608 C686.823,109.857 690.578,107.813 693.528,104.469 C696.472,101.133 697.941,97.276 697.933,92.898 C697.922,87.833 695.728,83.556 691.35,80.065 C687.661,77.125 683.393,75.829 678.545,76.178 C673.51,76.555 669.327,78.63 665.998,82.404 C662.819,86.006 661.308,90.073 661.462,94.606 C661.496,95.697 661.629,96.747 661.86,97.756 L659.643,97.756 C659.549,98.491 659.223,99.61 658.668,101.112 C658.112,102.614 657.379,103.889 656.471,104.937 C655.39,106.173 654.133,107.023 652.7,107.484 C651.267,107.945 649.422,108.176 647.167,108.176 C645.349,108.176 644.198,108.004 643.713,107.659 C643.227,107.315 642.969,106.595 642.938,105.498 L642.891,104.042 L642.891,80.553 C642.891,79.966 642.985,79.502 643.173,79.161 C643.36,78.821 643.822,78.643 644.559,78.628 L648.294,78.558 L648.294,76 L629.286,76 L629.286,78.558 L631.8,78.629 C633.022,78.66 633.746,78.852 633.973,79.204 C634.2,79.556 634.314,80.569 634.314,82.243 L634.314,106.158 C634.314,106.878 634.212,107.348 634.008,107.566 C633.805,107.786 633.515,107.926 633.139,107.989 C632.669,108.068 632.273,108.114 631.952,108.129 C631.631,108.145 630.742,108.153 629.286,108.153 L629.286,110.711 L629.288,110.711 L629.288,113.166 C630.964,113.307 632.052,113.53 632.554,113.835 C633.055,114.14 633.579,114.982 634.128,116.358 L646.087,146 L650.034,146 L661.007,119.292 C661.947,116.992 663.09,115.365 664.437,114.41 C665.204,113.879 666.246,113.487 667.562,113.237 L667.562,113.167 C669.883,113.214 671.302,113.324 671.815,113.495 C672.332,113.667 672.59,114.175 672.59,115.02 L672.59,140.414 C672.59,141.567 672.304,142.255 671.732,142.476 C671.16,142.698 669.755,142.792 667.515,142.761 L667.515,145.319 L700.151,145.319 L700.714,132.599 L698.318,132.435 Z M667.41,97.496 C668.514,94.418 670.336,91.441 672.875,88.564 C675.565,85.515 677.936,83.367 679.988,82.122 C683.763,79.82 687.09,79.816 689.969,82.112 C692.361,84.018 693.054,86.442 692.049,89.385 C691.043,92.327 689.089,95.443 686.185,98.734 C682.834,102.531 679.805,105.011 677.096,106.174 C674.388,107.337 671.933,107.041 669.733,105.286 C667.079,103.171 666.304,100.574 667.41,97.496 Z M658.128,117.285 C658.027,117.747 657.662,118.831 657.036,120.536 L650.82,135.666 L642.868,115.396 C642.79,115.193 642.731,115.02 642.692,114.88 C642.653,114.739 642.633,114.598 642.633,114.457 C642.633,114.066 642.723,113.808 642.904,113.683 C643.083,113.558 643.315,113.464 643.596,113.401 C643.737,113.386 644.211,113.346 645.018,113.284 C645.825,113.222 646.369,113.182 646.651,113.167 L646.651,110.711 L653.488,110.711 L653.488,113.166 C654.819,113.26 655.814,113.448 656.472,113.73 C657.678,114.246 658.281,115.114 658.281,116.335 C658.281,116.507 658.23,116.824 658.128,117.285 Z M667.562,110.608 L667.515,110.608 L661.55,110.608 L662.111,98.708 C663.029,101.773 664.908,104.439 667.751,106.705 C670.359,108.784 673.136,110.084 676.083,110.608 L667.562,110.608 Z" />
        </g>
    </g>
</svg>