<svg xmlns="http://www.w3.org/2000/svg" viewBox="0 0 24 24" width="24" height="24">
  <title>arrow.right</title>
  <path transform="matrix(0.9190450547478011, 0, 0, 0.9190450547478011, -0.7463651050080773, 19.775982767905226)" d="M4.02-7.42L18.84-7.42L21.67-7.59L17.73-4.00L15.11-1.32C14.92-1.15 14.82-0.87 14.82-0.59C14.82 0 15.27 0.42 15.84 0.42C16.13 0.42 16.37 0.32 16.61 0.09L24.40-7.68C24.63-7.90 24.75-8.17 24.75-8.46C24.75-8.75 24.63-9.02 24.40-9.25L16.63-16.99C16.37-17.25 16.13-17.34 15.84-17.34C15.27-17.34 14.82-16.92 14.82-16.34C14.82-16.05 14.92-15.79 15.11-15.60L17.73-12.93L21.67-9.33L18.84-9.50L4.02-9.50C3.41-9.50 2.99-9.07 2.99-8.46C2.99-7.85 3.41-7.42 4.02-7.42Z" fill="currentColor"/>
</svg>