<svg xmlns="http://www.w3.org/2000/svg" viewBox="0 0 24 24" width="24" height="24">
  <title>baseball</title>
  <path transform="matrix(0.8366013071895425, 0, 0, 0.8366013071895425, 0.2450980392156863, 19.07843137254902)" d="M14.05 3.49C20.65 3.49 26.00-1.86 26.00-8.46C26.00-15.06 20.65-20.41 14.05-20.41C7.45-20.41 2.10-15.06 2.10-8.46C2.10-1.86 7.45 3.49 14.05 3.49ZM14.05 1.90C13.61 1.90 13.17 1.88 12.74 1.82C12.91 1.15 13.02 0.46 13.08-0.23L13.63-0.22C13.93-0.21 14.17-0.46 14.17-0.75C14.18-1.03 13.95-1.28 13.65-1.29L13.11-1.30C13.10-2.03 13.03-2.75 12.88-3.47L13.41-3.60C13.69-3.68 13.85-3.97 13.78-4.25C13.70-4.55 13.43-4.72 13.13-4.64L12.62-4.51C12.42-5.21 12.14-5.91 11.80-6.57L12.30-6.86C12.59-7.01 12.66-7.34 12.50-7.58C12.35-7.84 12.04-7.95 11.78-7.79L11.26-7.50C10.83-8.17 10.35-8.77 9.82-9.32L10.25-9.76C10.48-9.98 10.46-10.31 10.25-10.50C10.04-10.72 9.71-10.75 9.49-10.52L9.04-10.07C8.52-10.51 7.97-10.91 7.38-11.26L7.62-11.70C7.76-11.95 7.68-12.27 7.42-12.40C7.15-12.55 6.82-12.48 6.68-12.21L6.43-11.77C5.81-12.07 5.17-12.32 4.51-12.52C6.09-16.22 9.77-18.82 14.05-18.82C14.47-18.82 14.88-18.80 15.28-18.75C15.12-18.07 15.01-17.39 14.95-16.69L14.44-16.71C14.13-16.70 13.90-16.46 13.90-16.16C13.89-15.87 14.11-15.63 14.41-15.63L14.93-15.62C14.94-14.93 15.01-14.25 15.14-13.57L14.50-13.41C14.19-13.32 14.05-13.03 14.14-12.75C14.19-12.46 14.47-12.29 14.77-12.38L15.39-12.53C15.60-11.80 15.88-11.07 16.24-10.38L15.73-10.09C15.47-9.95 15.40-9.62 15.55-9.36C15.67-9.12 16.00-9 16.25-9.16L16.78-9.46C17.19-8.81 17.65-8.23 18.16-7.69L17.80-7.32C17.59-7.13 17.60-6.79 17.82-6.59C18.02-6.39 18.35-6.38 18.56-6.59L18.94-6.95C19.49-6.47 20.07-6.05 20.70-5.68L20.45-5.23C20.30-4.97 20.39-4.64 20.65-4.50C20.89-4.36 21.25-4.44 21.38-4.71L21.63-5.18C22.27-4.88 22.92-4.63 23.60-4.43C22.02-0.71 18.34 1.90 14.05 1.90ZM18.21-10.28C18.48-10.43 18.55-10.72 18.41-11.00C18.27-11.25 17.95-11.37 17.70-11.20L17.32-10.99C17.00-11.59 16.76-12.21 16.57-12.83L16.95-12.93C17.24-13.01 17.40-13.29 17.31-13.57C17.25-13.86 16.97-14.04 16.68-13.96L16.32-13.88C16.21-14.44 16.15-15.01 16.13-15.59L16.66-15.57C16.97-15.56 17.19-15.79 17.19-16.09C17.20-16.38 16.97-16.63 16.68-16.64L16.15-16.65C16.20-17.30 16.29-17.93 16.44-18.54C21.01-17.46 24.41-13.36 24.41-8.46C24.41-7.45 24.27-6.47 23.99-5.54C23.38-5.72 22.78-5.94 22.21-6.22L22.45-6.67C22.61-6.94 22.50-7.24 22.24-7.41C21.98-7.54 21.66-7.45 21.53-7.20L21.27-6.73C20.75-7.04 20.25-7.41 19.79-7.82L20.14-8.17C20.37-8.40 20.36-8.73 20.13-8.94C19.93-9.14 19.59-9.15 19.38-8.93L19.02-8.57C18.60-9.02 18.20-9.53 17.85-10.07ZM11.39-0.28L11.88-0.27C11.84 0.36 11.73 0.98 11.58 1.61C7.05 0.49 3.69-3.60 3.69-8.46C3.69-9.48 3.84-10.46 4.11-11.40C4.71-11.23 5.31-11.00 5.87-10.72L5.61-10.24C5.46-9.97 5.55-9.64 5.82-9.52C6.08-9.36 6.39-9.45 6.54-9.71L6.81-10.21C7.29-9.90 7.75-9.56 8.18-9.19L7.92-8.92C7.70-8.71 7.71-8.36 7.93-8.17C8.14-7.96 8.46-7.95 8.68-8.16L8.96-8.45C9.41-7.98 9.81-7.45 10.17-6.90L9.82-6.70C9.55-6.55 9.47-6.21 9.63-5.96C9.79-5.71 10.08-5.61 10.35-5.75L10.71-5.96C11.02-5.39 11.25-4.80 11.44-4.21L10.96-4.08C10.66-4.01 10.50-3.71 10.57-3.43C10.65-3.14 10.93-2.96 11.23-3.04L11.71-3.16C11.82-2.55 11.89-1.95 11.91-1.34L11.41-1.35C11.11-1.36 10.88-1.11 10.86-0.82C10.86-0.53 11.10-0.29 11.39-0.28Z" fill="currentColor"/>
</svg>