<svg xmlns="http://www.w3.org/2000/svg" viewBox="0 0 24 24" width="24" height="24">
  <title>calendar.day.timeline.left</title>
  <path transform="matrix(0.6859592711682744, 0, 0, 0.6859592711682744, -0.04983922829581999, 17.791800643086816)" d="M7.96-10.88L9.84-10.88L9.84-15.70C9.84-16.79 10.43-17.34 11.47-17.34L27.81-17.34C28.85-17.34 29.43-16.79 29.43-15.70L29.43-10.88L31.31-10.88L31.31-15.60C31.31-18.02 30.08-19.23 27.63-19.23L11.63-19.23C9.18-19.23 7.96-18.01 7.96-15.60ZM4.59-16.35C5.38-16.35 6.01-16.98 6.01-17.78C6.01-18.56 5.38-19.20 4.59-19.20C3.81-19.20 3.16-18.56 3.16-17.78C3.16-16.98 3.81-16.35 4.59-16.35ZM4.59-11.70C5.38-11.70 6.01-12.34 6.01-13.13C6.01-13.91 5.38-14.54 4.59-14.54C3.81-14.54 3.16-13.91 3.16-13.13C3.16-12.34 3.81-11.70 4.59-11.70ZM32.14-8.45C32.14-8.91 31.77-9.27 31.31-9.27L5.95-9.27C5.68-9.75 5.16-10.05 4.59-10.05C3.71-10.05 2.99-9.34 2.99-8.46C2.99-7.58 3.71-6.87 4.59-6.87C5.16-6.87 5.66-7.16 5.93-7.62L31.31-7.62C31.77-7.62 32.14-7.99 32.14-8.45ZM9.84-6.02L7.96-6.02L7.96-1.29C7.96 1.13 9.18 2.34 11.63 2.34L27.63 2.34C30.08 2.34 31.31 1.14 31.31-1.29L31.31-6.02L29.43-6.02L29.43-1.18C29.43-0.09 28.85 0.46 27.81 0.46L11.47 0.46C10.43 0.46 9.84-0.09 9.84-1.18ZM4.59-2.41C5.38-2.41 6.01-3.05 6.01-3.83C6.01-4.63 5.38-5.26 4.59-5.26C3.81-5.26 3.16-4.63 3.16-3.83C3.16-3.05 3.81-2.41 4.59-2.41ZM4.59 2.24C5.38 2.24 6.01 1.59 6.01 0.81C6.01 0.02 5.38-0.61 4.59-0.61C3.81-0.61 3.16 0.02 3.16 0.81C3.16 1.59 3.81 2.24 4.59 2.24Z" fill="currentColor"/>
</svg>