<svg xmlns="http://www.w3.org/2000/svg" viewBox="0 0 24 24" width="24" height="24">
  <title>arrow.left</title>
  <path transform="matrix(0.9190450547478011, 0, 0, 0.9190450547478011, -0.7463651050080773, 19.775982767905226)" d="M8.89-7.42L23.72-7.42C24.33-7.42 24.75-7.85 24.75-8.46C24.75-9.07 24.33-9.50 23.72-9.50L8.89-9.50L6.07-9.33L10.01-12.93L12.63-15.60C12.82-15.79 12.93-16.05 12.93-16.34C12.93-16.92 12.47-17.34 11.89-17.34C11.61-17.34 11.37-17.25 11.11-16.99L3.35-9.25C3.12-9.02 2.99-8.75 2.99-8.46C2.99-8.17 3.12-7.90 3.35-7.68L11.13 0.09C11.37 0.32 11.61 0.42 11.89 0.42C12.47 0.42 12.93 0 12.93-0.59C12.93-0.87 12.82-1.15 12.63-1.32L10.01-4.00L6.07-7.59Z" fill="currentColor"/>
</svg>